# xmcd CD database file
#
# Track frame offsets:
#	150
#	17901
#	41042
#	62237
#	82952
#	101837
#	126356
#	145542
#	166154
#	188464
#	211133
#	233050
#	248162
#	265952
#	296655
#	326664
#
# Disc length: 4483 seconds
#
# Revision: 0
# Processed by: cddbd v1.5.2PL0 Copyright (c) Steve Scherf et al.
# Submitted via: CDex 1.70beta2
#
DISCID=e1118110
DTITLE=vusi mahlasela and proud people's band - jungle of questions
DYEAR=2002
DGENRE=Jazz
TTITLE0=Di-ana
TTITLE1=tswang tswang tswang
TTITLE2=sabela
TTITLE3=mamelodi
TTITLE4=gumba gumba
TTITLE5=vulani amasango
TTITLE6=mantintane
TTITLE7=people's doctor
TTITLE8=mother agriqua
TTITLE9=tompane
TTITLE10=mma modiane
TTITLE11=makhosi
TTITLE12=kolozwana
TTITLE13=lomhlaba
TTITLE14=how can it be ?
TTITLE15=meeting of the waters
EXTD=YEAR: 2002
EXTT0=
EXTT1=
EXTT2=
EXTT3=
EXTT4=
EXTT5=
EXTT6=
EXTT7=
EXTT8=
EXTT9=
EXTT10=
EXTT11=
EXTT12=
EXTT13=
EXTT14=
EXTT15=
PLAYORDER=
